<?xml version="1.0" standalone="no"?>
<!DOCTYPE svg PUBLIC "-//W3C//DTD SVG 20010904//EN"
 "http://www.w3.org/TR/2001/REC-SVG-20010904/DTD/svg10.dtd">
<svg version="1.0" xmlns="http://www.w3.org/2000/svg"
 width="1360.000000pt" height="569.000000pt" viewBox="0 0 1360.000000 569.000000"
 preserveAspectRatio="xMidYMid meet">

<g transform="translate(0.000000,569.000000) scale(0.100000,-0.100000)"
fill="#000000" stroke="none">
<path d="M2640 2675 l0 -1805 2120 0 2120 0 0 1805 0 1805 -2120 0 -2120 0 0
-1805z m2582 1213 l3 -473 324 -3 324 -2 -372 -251 c-204 -138 -375 -249 -380
-247 -4 2 -288 179 -629 393 l-622 390 0 333 0 332 675 0 675 0 2 -472z m-742
-634 l600 -376 -38 -27 c-108 -79 -495 -332 -502 -329 -5 2 -303 201 -663 443
l-653 440 320 5 321 5 3 108 c1 59 5 107 7 107 3 0 275 -169 605 -376z"/>
</g>
</svg>
